<svg width="66" height="65" viewBox="0 0 66 65" fill="none" xmlns="http://www.w3.org/2000/svg">
<path d="M64.2763 48.3667C58.0306 58.3111 46.3749 65 33.0262 65C19.2229 65 7.22984 57.8481 1.15689 47.3399C0.12112 45.8148 0.620198 45.0993 0.620198 45.0993C1.07599 44.1106 3.17682 44.1926 3.17682 44.1926H62.7207C62.7207 44.1926 64.6442 44.1891 64.9996 45.0374C64.9996 45.0374 65.9178 46.3578 64.2763 48.3667Z" fill="#F8AF0C"/>
<path d="M40.3914 40.4449C31.4158 42.6489 21.4471 40.5021 14.4071 34.0033C7.12728 27.2835 4.88831 17.6728 7.68906 9.17434C8.01414 7.86574 8.68613 7.73143 8.68613 7.73143C9.49138 7.43175 10.5526 8.49788 10.5526 8.49788L41.2213 36.8083L41.9557 37.4861C41.9557 37.4861 42.9722 38.4207 42.6749 39.0412C42.6749 39.0412 42.405 40.1845 40.3914 40.4449Z" fill="#22A45D"/>
<path d="M40.5023 33.0165C34.4607 29.7831 30.397 23.7491 30.397 16.8387C30.397 9.69277 34.742 3.48408 41.1262 0.340157C42.0528 -0.196167 42.4874 0.0622864 42.4874 0.0622864C43.0882 0.298126 43.0382 1.38584 43.0382 1.38584V32.2111C43.0382 32.2111 43.0403 33.207 42.5249 33.3909C42.5249 33.3909 41.723 33.8663 40.5023 33.0165Z" fill="#FF7058"/>
<path d="M45.2403 34.9096C43.8775 30.1806 45.2049 24.9284 49.2229 21.2192C53.3781 17.3838 59.3205 16.2041 64.5752 17.6799C65.3841 17.8511 65.4672 18.2051 65.4672 18.2051C65.6524 18.6293 64.9933 19.1885 64.9933 19.1885L47.4888 35.3468L47.0698 35.7337C47.0698 35.7337 46.4917 36.2693 46.1083 36.1127C46.1083 36.1127 45.4012 35.9704 45.2403 34.9096Z" fill="#FFD15C"/>
</svg>
